<?xml version="1.0" standalone="no"?><!DOCTYPE svg PUBLIC "-//W3C//DTD SVG 1.1//EN" "http://www.w3.org/Graphics/SVG/1.1/DTD/svg11.dtd"><svg class="icon" style="width: 5em; height: 5em;vertical-align: middle;fill: currentColor;overflow: hidden;" viewBox="0 0 1024 1024" version="1.1" xmlns="http://www.w3.org/2000/svg"><path d="M966.232318 716.965162c-12.579503 1.035586-123.627668 17.396205-166.289304 11.398608-16.030092-2.297322-143.605675-52.514027-181.740204-66.314335 59.768245-84.827991 95.258551-175.792749 104.2002-275.838326L544.448016 386.211109l0-98.485035 224.949308 0 0-42.441625L544.448016 245.284449l0-101.500719-57.173141-1.566682c-34.267455 0-50.813293 7.647167-50.813293 22.76447l0 80.302931L219.231073 245.284449l0 42.441625 217.23051 0 0 98.485035-155.014516 1.560542 0 43.939745 327.940984-1.49812c-15.22168 68.195172-41.947368 133.339868-83.949994 193.972806 0.275269 0.113587 0.50142 0.194428 0.644683 0.268106-3.140527-1.14201-34.234709-13.43908-46.299489-20.026102-99.078553-51.513234-177.938622-77.272921-236.373499-75.729775-53.408397 0-99.078553 15.115256-134.666072 43.951001-38.133505 31.778774-57.175187 74.231655-55.95029 125.752052-1.224898 59.07342 19.138896 104.572684 58.447157 136.423089 27.904537 22.71 62.269205 37.810141 102.993722 43.951001 11.389398 1.444908 21.493523 1.444908 32.980135 3.006474l16.511046 0c104.20327-7.580652 195.646935-50.018184 273.169543-125.770472 7.553023-9.097192 15.223726-16.665565 22.859637-24.246217 68.209498 40.634466 135.229914 72.387657 199.799512 98.066503l-0.097214 0.046049c9.330506 3.573385 18.382673 6.728238 27.098171 9.364275 16.643052 4.950755 33.70566 6.596232 54.16462-11.828396 81.343633-73.043596 97.614202-71.111594 123.193787-93.957929C969.440383 728.546941 976.029452 716.112748 966.232318 716.965162zM479.716736 683.384345c-2.530636 3.013637-5.121648 5.974062-7.571443 9.05012-34.362622 39.358403-73.770144 71.208808-115.719558 96.984868-40.632419 22.73684-74.978668 33.29429-102.929254 34.83846-91.442642 0-138.484028-40.926108-138.484028-124.288724 0-56.012711 68.160379-110.833271 107.130949-112.719224 38.924521-1.924839 54.390771-5.694699 94.89323 11.20418 40.46562 16.832364 53.387931 21.158902 74.976622 33.296337 10.085706 4.527107 39.407522 22.665209 87.703481 51.582819L479.716736 683.384345z" /></svg>