<?xml version="1.0" standalone="no"?><!DOCTYPE svg PUBLIC "-//W3C//DTD SVG 1.1//EN" "http://www.w3.org/Graphics/SVG/1.1/DTD/svg11.dtd"><svg t="1622097569273" class="icon" viewBox="0 0 1024 1024" version="1.1" xmlns="http://www.w3.org/2000/svg" p-id="49729" xmlns:xlink="http://www.w3.org/1999/xlink" width="128" height="128"><defs><style type="text/css"></style></defs><path d="M128 64h768a32 32 0 0 1 32 32v832a32 32 0 0 1-32 32H128a32 32 0 0 1-32-32V96a32 32 0 0 1 32-32z m342.016 416L352 661.696l160 44-82.88 183.872L672 642.912l-160-26.176L605.12 480h-135.104zM864 131.84L160 131.52V384h704V131.84zM296 192h64v128h-64V192z m192 0h64v128h-64V192z m192 0h64v128h-64V192z" p-id="49730"></path></svg>