<?xml version="1.0" standalone="no"?><!DOCTYPE svg PUBLIC "-//W3C//DTD SVG 1.1//EN" "http://www.w3.org/Graphics/SVG/1.1/DTD/svg11.dtd"><svg t="1622381265889" class="icon" viewBox="0 0 1024 1024" version="1.1" xmlns="http://www.w3.org/2000/svg" p-id="5315" xmlns:xlink="http://www.w3.org/1999/xlink" width="128" height="128"><defs><style type="text/css"></style></defs><path d="M46.08 0C34.56 0 22.272 5.12 13.824 15.36 5.376 25.6 0 38.4 0 51.2v921.6c0 12.8 4.608 26.453333 13.824 35.84 9.216 10.24 20.736 15.36 32.256 15.36h675.84c11.52 0 23.808-5.12 32.256-15.36 9.216-10.24 13.824-23.04 13.824-35.84v-682.666667L506.88 0H46.08z" fill="#1FBF7B" p-id="5316"></path><path d="M768 290.176H554.666667a45.397333 45.397333 0 0 1-34.261334-15.829333c-9.792-9.664-14.677333-23.701333-14.677333-36.885334V0L768 290.176z" fill="#BDEBD7" p-id="5317"></path><path d="M340.117333 527.68L241.898667 362.666667h67.882666l64.277334 118.122666L441.216 362.666667h65.728l-100.394667 165.013333L512 703.146667h-68.608l-70.784-125.056L301.824 704H234.666667l105.450666-176.32z" fill="#FFFFFF" p-id="5318"></path></svg>