<?xml version="1.0" standalone="no"?><!DOCTYPE svg PUBLIC "-//W3C//DTD SVG 1.1//EN" "http://www.w3.org/Graphics/SVG/1.1/DTD/svg11.dtd"><svg t="1622381416605" class="icon" viewBox="0 0 1024 1024" version="1.1" xmlns="http://www.w3.org/2000/svg" p-id="13384" xmlns:xlink="http://www.w3.org/1999/xlink" width="128" height="128"><defs><style type="text/css"></style></defs><path d="M940.143142 585.169279H90.896581V40.358731A38.59048 38.59048 0 0 1 131.214993 0.040318h596.58451v182.840801c0 20.223204 15.871375 36.542561 35.390606 36.542561h176.953033v365.681601z" fill="#D1E8FF" p-id="13385"></path><path d="M728.11949 0.168313l212.279642 219.383362H763.510097a35.966584 35.966584 0 0 1-35.390607-36.542561V0.168313z" fill="#65B1FD" p-id="13386"></path><path d="M969.581983 1024H61.45774a42.110342 42.110342 0 0 1-41.278375-42.878312V627.983593a42.238337 42.238337 0 0 1 41.278375-42.814314h908.124243c22.8471 0.063997 41.342372 19.199244 41.278374 42.878312v353.074097a42.110342 42.110342 0 0 1-41.214377 42.878312h-0.063997zM371.205544 364.569965h115.387456v-111.355615L371.205544 269.085725v95.48424z m0 108.283736l115.387456 15.935373v-110.075666H371.205544v94.140293z m128.122955 17.599307l153.465957 21.119169V378.777406H499.328499v111.675602z m0-238.902593v113.01955H652.794456V230.431247l-153.465957 21.119168z" fill="#2B95FF" p-id="13387"></path><path d="M360.709957 960.00252v-47.614125H238.98675v-76.029007h99.836069v-47.614125h-99.836069v-65.661414H356.486123v-47.230141H182.156988V960.00252h178.552969z m88.316523 0l30.334805-62.973521c6.911728-14.591425 13.439471-29.566836 20.735184-46.846155h1.535939c8.447667 17.27932 14.97541 32.25473 22.271123 46.846155l31.870745 62.973521h62.973521L538.878942 816.00819l74.877051-140.154482h-59.901641l-26.878942 58.365702c-6.143758 13.439471-11.903531 27.262927-18.815259 44.926231h-1.919924c-8.447667-17.663305-14.591425-31.48676-21.119169-44.926231l-28.414881-58.365702h-62.97352l74.877051 137.466588L388.740853 960.00252h60.285627z m388.592699 0v-47.614125h-121.723207v-76.029007h99.836069v-47.614125h-99.836069v-65.661414h117.499373v-47.230141h-174.329136V960.00252h178.55297z" fill="#FFFFFF" p-id="13388"></path></svg>