<?xml version="1.0" standalone="no"?><!DOCTYPE svg PUBLIC "-//W3C//DTD SVG 1.1//EN" "http://www.w3.org/Graphics/SVG/1.1/DTD/svg11.dtd"><svg t="1622347046152" class="icon" viewBox="0 0 1024 1024" version="1.1" xmlns="http://www.w3.org/2000/svg" p-id="2313" xmlns:xlink="http://www.w3.org/1999/xlink" width="128" height="128"><defs><style type="text/css"></style></defs><path d="M79.644444 347.022222l108.088889-108.088889h278.755556L381.155556 113.777778H62.577778c-17.066667 0-34.133333 17.066667-34.133334 28.444444V853.333333c0 34.133333 22.755556 56.888889 56.888889 56.888889h102.4l-102.4-142.222222-5.688889-420.977778z" fill="#FDC11F" p-id="2314"></path><path d="M85.333333 170.666667h853.333334c34.133333 0 56.888889 22.755556 56.888889 56.888889v113.777777h-910.222223V170.666667z" fill="#FDC11F" p-id="2315"></path><path d="M85.333333 284.444444h853.333334c34.133333 0 56.888889 22.755556 56.888889 56.888889v512c0 34.133333-22.755556 56.888889-56.888889 56.888889h-853.333334c-34.133333 0-56.888889-22.755556-56.888889-56.888889V341.333333c0-34.133333 28.444444-56.888889 56.888889-56.888889z" fill="#FFE143" p-id="2316"></path><path d="M85.333333 227.555556h853.333334v56.888888h-853.333334z" fill="#F4EFDC" p-id="2317"></path></svg>