<?xml version="1.0" standalone="no"?><!DOCTYPE svg PUBLIC "-//W3C//DTD SVG 1.1//EN" "http://www.w3.org/Graphics/SVG/1.1/DTD/svg11.dtd"><svg t="1622381537399" class="icon" viewBox="0 0 1024 1024" version="1.1" xmlns="http://www.w3.org/2000/svg" p-id="21105" xmlns:xlink="http://www.w3.org/1999/xlink" width="128" height="128"><defs><style type="text/css"></style></defs><path d="M311.168 273.621333c0 11.221333-5.205333 16.810667-15.658667 16.810667H183.808c-10.410667 0-15.658667-5.589333-15.658667-16.810667V153.642667c0-11.221333 5.248-16.810667 15.658667-16.810667h111.701333c10.453333 0 15.658667 5.589333 15.658667 16.810667v119.978666z m285.952 0c0 11.221333-5.205333 16.810667-15.616 16.810667H469.76c-10.453333 0-15.658667-5.589333-15.658667-16.810667V153.642667c0-11.221333 5.205333-16.810667 15.658667-16.810667h111.701333c10.410667 0 15.616 5.589333 15.616 16.810667v119.978666z m286.037333 0c0 11.221333-5.205333 16.810667-15.658666 16.810667h-111.701334c-10.410667 0-15.616-5.589333-15.616-16.810667V153.642667c0-11.221333 5.205333-16.810667 15.616-16.810667h111.701334c10.453333 0 15.658667 5.589333 15.658666 16.810667v119.978666z m-571.989333 307.2c0 11.221333-5.205333 16.810667-15.658667 16.810667H183.808c-10.410667 0-15.658667-5.589333-15.658667-16.810667v-119.978666c0-11.221333 5.248-16.810667 15.658667-16.810667h111.701333c10.453333 0 15.658667 5.589333 15.658667 16.810667v119.978666z m285.952 0c0 11.221333-5.205333 16.810667-15.616 16.810667H469.76c-10.453333 0-15.658667-5.589333-15.658667-16.810667v-119.978666c0-11.221333 5.205333-16.810667 15.658667-16.810667h111.701333c10.410667 0 15.616 5.589333 15.616 16.810667v119.978666z m286.037333 0c0 11.221333-5.205333 16.810667-15.658666 16.810667h-111.701334c-10.410667 0-15.616-5.589333-15.616-16.810667v-119.978666c0-11.221333 5.205333-16.810667 15.616-16.810667h111.701334c10.453333 0 15.658667 5.589333 15.658666 16.810667v119.978666z m-571.989333 307.2c0 11.221333-5.205333 16.810667-15.658667 16.810667H183.808c-10.410667 0-15.658667-5.589333-15.658667-16.810667v-119.978666c0-11.221333 5.248-16.810667 15.658667-16.810667h111.701333c10.453333 0 15.658667 5.589333 15.658667 16.810667v119.978666z m285.952 0c0 11.221333-5.205333 16.810667-15.616 16.810667H469.76c-10.453333 0-15.658667-5.589333-15.658667-16.810667v-119.978666c0-11.221333 5.205333-16.810667 15.658667-16.810667h111.701333c10.410667 0 15.616 5.589333 15.616 16.810667v119.978666z m286.037333 0c0 11.221333-5.205333 16.810667-15.658666 16.810667h-111.701334c-10.410667 0-15.616-5.589333-15.616-16.810667v-119.978666c0-11.221333 5.205333-16.810667 15.616-16.810667h111.701334c10.453333 0 15.658667 5.589333 15.658666 16.810667v119.978666z" p-id="21106"></path></svg>