<?xml version="1.0" standalone="no"?><!DOCTYPE svg PUBLIC "-//W3C//DTD SVG 1.1//EN" "http://www.w3.org/Graphics/SVG/1.1/DTD/svg11.dtd"><svg t="1622381484798" class="icon" viewBox="0 0 1063 1024" version="1.1" xmlns="http://www.w3.org/2000/svg" p-id="18209" xmlns:xlink="http://www.w3.org/1999/xlink" width="132.875" height="128"><defs><style type="text/css"></style></defs><path d="M531.53792 512m-512 0a512 512 0 1 0 1024 0 512 512 0 1 0-1024 0Z" fill="#F8C332" p-id="18210"></path><path d="M1044.48 289.006933C951.35744 174.298453 721.394347 185.002667 565.787307 311.296c-16.943787 19.68128-15.182507 48.974507 3.938986 65.440427s48.35328 13.858133 65.297067-5.81632c112.564907-91.354453 279.292587-98.638507 347.047253-15.1552 18.971307 17.749333 48.319147 17.16224 65.536-1.26976s15.824213-47.75936-3.126613-65.488214z" fill="#EFEFEF" p-id="18211"></path><path d="M599.053653 390.949547a48.093867 48.093867 0 0 1-31.552853-11.605334c-20.48-17.667413-22.44608-49.152-4.3008-70.253226l0.197973-0.232107 0.238934-0.191147c74.717867-60.64128 171.226453-97.921707 264.76544-102.27712 44.980907-2.095787 88.20736 3.700053 125.00992 16.75264 39.021227 13.84448 70.498987 35.2256 93.525333 63.556267a50.797227 50.797227 0 0 1 16.05632 34.645333 48.182613 48.182613 0 0 1-47.45216 50.776747 50.85184 50.85184 0 0 1-35.826347-13.837653l-0.320853-0.34816c-31.607467-38.912-87.702187-59.624107-153.920853-56.7296-66.491733 2.90816-135.031467 29.218133-188.095147 72.198826a50.8928 50.8928 0 0 1-38.324907 17.544534z m-30.877013-77.202774c-15.476053 18.220373-13.810347 45.253973 3.775147 60.39552s44.796587 12.75904 60.484266-5.461333l0.197974-0.232107 0.238933-0.191146c54.203733-43.997867 124.306773-70.935893 192.32768-73.905494 68.266667-2.976427 126.3616 18.541227 159.368533 59.06432a44.1344 44.1344 0 0 0 30.86336 11.851094 41.3696 41.3696 0 0 0 40.768854-43.629227 43.997867 43.997867 0 0 0-14.076587-30.139733l-0.314027-0.341334C998.126933 237.329067 920.45312 208.896 828.757333 213.183147c-92.050773 4.287147-186.996053 40.932693-260.580693 100.563626z" fill="#FBB03B" p-id="18212"></path><path d="M494.05952 302.844587C401.708373 187.528533 171.677013 196.744533 15.2576 322.020693c-17.066667 19.565227-15.496533 48.872107 3.508907 65.460907s48.264533 14.17216 65.338026-5.393067C197.290667 291.498667 364.032 285.26592 431.24736 369.19296c18.855253 17.851733 48.203093 17.46944 65.536-0.853333s16.13824-47.643307-2.72384-65.49504z" fill="#EFEFEF" p-id="18213"></path><path d="M48.278187 401.913173A48.14848 48.14848 0 0 1 0.075093 356.051627a50.824533 50.824533 0 0 1 12.608854-36.276907l0.197973-0.232107 0.238933-0.191146C88.234667 259.19488 185.002667 222.549333 278.528 218.801493c44.99456-1.80224 88.180053 4.273493 124.928 17.565014 38.912 14.097067 70.26688 35.682987 93.129387 64.170666 20.02944 19.114667 21.25824 50.558293 2.730666 70.157654a48.346453 48.346453 0 0 1-35.293866 15.018666 50.961067 50.961067 0 0 1-35.08224-14.056106l-0.320854-0.34816c-31.348053-39.144107-87.313067-60.197547-153.552213-57.726294-66.505387 2.471253-135.215787 28.330667-188.552533 70.997334a50.824533 50.824533 0 0 1-34.030934 17.175893c-1.4336 0.1024-2.82624 0.157013-4.205226 0.157013zM17.63328 324.48512A44.01152 44.01152 0 0 0 6.888107 355.669333 41.355947 41.355947 0 0 0 51.882667 394.93632a43.984213 43.984213 0 0 0 29.648213-15.09376l0.197973-0.232107 0.238934-0.191146c54.49728-43.636053 124.770987-70.116693 192.805546-72.64256 68.314453-2.53952 126.23872 19.360427 158.98624 60.074666A44.182187 44.182187 0 0 0 463.981227 378.88a41.506133 41.506133 0 0 0 30.337706-12.9024c16.022187-16.930133 14.854827-44.148053-2.60096-60.675413l-0.320853-0.34816c-43.328853-54.101333-120.832-83.02592-212.575573-79.353174-92.043947 3.70688-187.221333 39.738027-261.188267 98.884267z" fill="#FBB03B" p-id="18214"></path><path d="M99.089067 313.89696m-49.302187 0a49.302187 49.302187 0 1 0 98.604373 0 49.302187 49.302187 0 1 0-98.604373 0Z" fill="#42210B" p-id="18215"></path><path d="M640.293547 308.087467m-49.302187 0a49.302187 49.302187 0 1 0 98.604373 0 49.302187 49.302187 0 1 0-98.604373 0Z" fill="#42210B" p-id="18216"></path><path d="M99.08224 429.922987a108.578133 42.366293 0 1 0 217.156267 0 108.578133 42.366293 0 1 0-217.156267 0Z" fill="#FB943B" p-id="18217"></path><path d="M750.475947 429.922987a108.578133 42.366293 0 1 0 217.156266 0 108.578133 42.366293 0 1 0-217.156266 0Z" fill="#FB943B" p-id="18218"></path><path d="M932.570453 577.536c-38.324907 172.079787-204.049067 301.52704-402.684586 301.52704-192.3072 0-353.77152-121.337173-398.636374-285.22496l-0.73728 0.14336c20.555093 183.282347 191.515307 326.314667 399.36 326.314667 214.070613 0 389.003947-151.702187 400.81408-342.848854" fill="#42210B" p-id="18219"></path><path d="M353.983147 174.482773c-27.7504-30.037333-63.330987-48.039253-102.120107-48.039253-39.424 0-75.53024 18.623147-103.471787 49.527467 17.332907-58.026667 57.1392-98.604373 103.46496-98.604374s86.13888 40.584533 103.471787 98.6112M915.06688 174.482773c-28.330667-30.037333-64.65536-48.039253-104.256853-48.039253-40.277333 0-77.141333 18.623147-105.642667 49.527467 17.701547-58.026667 58.340693-98.604373 105.642667-98.604374s87.947947 40.584533 105.642666 98.6112" fill="#1A1A1A" p-id="18220"></path></svg>