<?xml version="1.0" standalone="no"?><!DOCTYPE svg PUBLIC "-//W3C//DTD SVG 1.1//EN" "http://www.w3.org/Graphics/SVG/1.1/DTD/svg11.dtd"><svg t="1622381371784" class="icon" viewBox="0 0 1024 1024" version="1.1" xmlns="http://www.w3.org/2000/svg" p-id="10935" xmlns:xlink="http://www.w3.org/1999/xlink" width="128" height="128"><defs><style type="text/css"></style></defs><path d="M36.155077 846.769231h836.647385v79.832615H36.155077V846.769231zM183.611077 108.347077H1019.273846V188.258462H183.611077V108.386462zM36.155077 258.914462h836.647385v79.872H36.155077V258.914462z" fill="#108CEE" p-id="10936"></path><path d="M789.858462 258.914462h81.92v667.687384h-81.92V258.914462zM937.353846 108.386462h81.92v657.447384H937.353846V108.386462z m-752.64 0h81.92v204.8h-81.92v-204.8z" fill="#108CEE" p-id="10937"></path><path d="M829.833846 680.841846h190.424616v83.968H829.833846v-83.968z m11.224616 154.624l-71.68 39.936-655.36 6.144-66.56-49.152 153.6-195.584 49.112615-64.512 66.56 49.152 53.287385 38.912 168.96-173.056 59.392-60.455384 43.008 72.743384 199.68 335.872z" fill="#108CEE" p-id="10938"></path><path d="M36.155077 258.914462h81.92v667.687384H36.155077z" fill="#108CEE" p-id="10939"></path></svg>