<?xml version="1.0" standalone="no"?><!DOCTYPE svg PUBLIC "-//W3C//DTD SVG 1.1//EN" "http://www.w3.org/Graphics/SVG/1.1/DTD/svg11.dtd"><svg t="1622381290881" class="icon" viewBox="0 0 1024 1024" version="1.1" xmlns="http://www.w3.org/2000/svg" p-id="6202" xmlns:xlink="http://www.w3.org/1999/xlink" width="128" height="128"><defs><style type="text/css"></style></defs><path d="M145.6 0C100.8 0 64 35.2 64 80v862.336A81.92 81.92 0 0 0 145.6 1024h732.8A81.92 81.92 0 0 0 960 942.4v-617.6L657.6 0h-512z" fill="#FF5562" p-id="6203"></path><path d="M687.296 865.28c-53.76 0-101.568-92.16-127.168-151.872-42.688-17.92-89.6-34.176-134.848-45.248-40.064 26.432-107.52 65.728-159.552 65.728-32.448 0-55.488-16.256-64-44.416-6.848-23.04-0.832-39.232 5.952-47.744 13.696-18.816 41.856-28.16 84.48-28.16 34.176 0 77.696 5.952 126.336 17.92 32.32-22.656 62.848-47.744 91.264-75.136-12.8-59.712-26.432-156.16 8.576-200.512 17.024-21.312 43.52-28.16 75.072-18.752 35.008 10.24 47.808 31.552 52.032 47.744 14.528 58.048-52.032 136.576-97.28 182.656 10.24 40.064 23.04 81.92 39.296 120.32 64.832 28.992 141.632 71.68 150.144 118.592 3.456 16.192-1.664 31.552-14.464 44.352a55.04 55.04 0 0 1-35.84 14.528z m-79.36-129.728C640.32 801.28 671.04 832 687.296 832c2.56 0 5.952-0.832 11.072-5.12 5.952-5.952 5.952-10.24 5.12-13.632-3.392-17.088-30.72-45.248-95.552-77.696zM292.16 647.68c-41.792 0-53.76 10.24-57.152 14.528-0.832 1.664-4.288 5.952-0.832 17.92 2.56 10.24 9.344 20.48 31.552 20.48 27.328 0 66.56-15.36 112.64-42.688a440.448 440.448 0 0 0-86.208-10.24z m168.96-5.12c27.328 7.68 55.488 17.088 81.92 27.328a848.96 848.96 0 0 1-23.872-75.136c-18.752 16.256-38.4 32.448-58.048 47.808zM567.04 366.912a27.52 27.52 0 0 0-22.208 10.24c-17.92 22.208-19.648 78.528-5.952 150.208 52.032-55.488 80.192-106.688 73.344-133.952-0.832-4.288-4.224-16.256-28.16-23.04a46.4 46.4 0 0 0-17.024-3.456z" fill="#FFFFFF" p-id="6204"></path><path d="M960 326.4v16h-204.8s-100.8-20.8-99.2-108.8c0 0 4.8 92.8 97.6 92.8H960z" fill="#D33742" p-id="6205"></path><path d="M657.6 0v233.6c0 25.6 17.6 92.8 97.6 92.8H960L657.6 0z" fill="#FFBBC0" p-id="6206"></path></svg>