<?xml version="1.0" standalone="no"?><!DOCTYPE svg PUBLIC "-//W3C//DTD SVG 1.1//EN" "http://www.w3.org/Graphics/SVG/1.1/DTD/svg11.dtd"><svg t="1622384869755" class="icon" viewBox="0 0 1024 1024" version="1.1" xmlns="http://www.w3.org/2000/svg" p-id="33427" xmlns:xlink="http://www.w3.org/1999/xlink" width="128" height="128"><defs><style type="text/css"></style></defs><path d="M192.023273 384h640a42.635636 42.635636 0 0 1 42.658909 42.589091v362.821818a42.635636 42.635636 0 0 1-42.658909 42.589091h-640v106.589091a21.341091 21.341091 0 0 0 21.317818 21.410909h725.341091a21.410909 21.410909 0 0 0 21.341091-21.410909V308.829091l-10.100364-10.24h-126.533818a97.931636 97.931636 0 0 1-98.048-97.978182v-128l-8.610909-8.610909H213.341091a20.666182 20.666182 0 0 0-15.104 6.283636 21.131636 21.131636 0 0 0-6.213818 15.127273V384zM128 832H42.682182a42.635636 42.635636 0 0 1-42.682182-42.589091V426.589091a42.798545 42.798545 0 0 1 42.682182-42.589091H128.046545V85.410909A85.341091 85.341091 0 0 1 213.387636 0H743.377455L1024.046545 282.298182v656.290909A85.527273 85.527273 0 0 1 938.728727 1024H213.341091a85.573818 85.573818 0 0 1-85.341091-85.410909v-106.589091zM94.626909 472.436364v274.152727h44.916364v-105.192727h67.979636q100.189091 0 100.212364-84.945455c0-55.854545-33.419636-84.014545-99.444364-84.014545H94.626909z m44.916364 38.4h65.163636a70.656 70.656 0 0 1 43.403636 10.705454 40.890182 40.890182 0 0 1 14.196364 34.909091 43.310545 43.310545 0 0 1-13.824 35.84 72.727273 72.727273 0 0 1-43.776 10.705455h-65.163636v-92.16z m206.615272-38.4v274.152727h44.916364v-105.192727h67.956364q100.212364 0 100.212363-84.945455c0-55.854545-33.396364-84.014545-99.444363-84.014545h-113.640728z m44.916364 38.4h65.163636a70.632727 70.632727 0 0 1 43.380364 10.705454 40.913455 40.913455 0 0 1 14.219636 34.909091 43.310545 43.310545 0 0 1-13.824 35.84 72.797091 72.797091 0 0 1-43.776 10.705455h-65.163636v-92.16z m185.460364-38.4v38.4h89.879272v235.752727h44.916364V510.836364h89.856V472.436364h-224.651636z m0 0" fill="#F49C25" p-id="33428"></path></svg>