<?xml version="1.0" standalone="no"?><!DOCTYPE svg PUBLIC "-//W3C//DTD SVG 1.1//EN" "http://www.w3.org/Graphics/SVG/1.1/DTD/svg11.dtd"><svg t="1622097566311" class="icon" viewBox="0 0 1024 1024" version="1.1" xmlns="http://www.w3.org/2000/svg" p-id="49585" xmlns:xlink="http://www.w3.org/1999/xlink" width="128" height="128"><defs><style type="text/css"></style></defs><path d="M480 733.76a222.848 222.848 0 0 1-102.144-42.368l-46.88 46.88-45.248-45.248 46.88-46.88A222.848 222.848 0 0 1 290.24 544H224v-64h66.24a222.848 222.848 0 0 1 42.368-102.144l-46.88-46.88 45.248-45.248 46.88 46.88A222.848 222.848 0 0 1 480 290.24V224h64v66.24a222.848 222.848 0 0 1 102.144 42.368l46.88-46.88 45.248 45.248-46.88 46.88A222.848 222.848 0 0 1 733.76 480H800v64h-66.24a222.848 222.848 0 0 1-42.368 102.144l46.88 46.88-45.248 45.248-46.88-46.88A222.848 222.848 0 0 1 544 733.76V800h-64v-66.24zM512 960C264.576 960 64 759.424 64 512S264.576 64 512 64s448 200.576 448 448-200.576 448-448 448z m0-128c176.736 0 320-143.264 320-320S688.736 192 512 192 192 335.264 192 512s143.264 320 320 320z" p-id="49586"></path></svg>