<?xml version="1.0" standalone="no"?><!DOCTYPE svg PUBLIC "-//W3C//DTD SVG 1.1//EN" "http://www.w3.org/Graphics/SVG/1.1/DTD/svg11.dtd"><svg t="1622381339502" class="icon" viewBox="0 0 1024 1024" version="1.1" xmlns="http://www.w3.org/2000/svg" p-id="9396" xmlns:xlink="http://www.w3.org/1999/xlink" width="128" height="128"><defs><style type="text/css"></style></defs><path d="M175.0016 518.99904h-31.0016v58.99776h22.99904q8.00256 0 15.0016-2.00192 6.99904-3.00032 10.99776-6.00064 3.99872-3.99872 6.99904-9.99936 2.00192-5.00224 2.00192-12.00128 0-10.99776-5.00224-18.00192-3.99872-6.99904-15.0016-9.99936-2.00192 0-6.99904-0.9984z m198.00064 6.99904l-29.99808 89.00096h58.99776z m253.99808 85.00224q3.99872 5.00224 6.99904 9.99936 3.00032 6.99904 6.00064 12.99968l16.9984 41.99936q3.00032 5.00224 3.99872 8.00256v9.00096q-0.9984 0.9984-3.00032 2.00192-3.00032 0-6.99904 0.9984h-22.99904q-3.99872-0.9984-6.99904-0.9984-2.00192-0.9984-3.00032-3.00032t-0.9984-3.99872l-19.99872-44.99968q-3.00032-9.00096-6.00064-15.0016t-6.99904-9.99936-9.00096-6.00064-12.99968-2.00192h-12.99968v77.99808q0 2.00192-0.9984 3.99872-0.9984 0.9984-3.00032 2.00192l-6.00064 2.00192h-19.99872l-8.00256-2.00192q-2.00192 0-3.00032-2.00192t-0.9984-3.99872V499.99872q0-6.99904 3.00032-9.99936 5.00224-3.00032 9.99936-3.00032h67.00032q6.99904 0.9984 9.99936 0.9984 12.00128 2.00192 22.99904 6.00064 9.99936 3.99872 16.9984 10.99776t9.99936 16q3.99872 9.99936 3.99872 22.99904 0 9.99936-3.00032 19.00032-2.00192 8.00256-8.00256 15.0016-3.99872 6.00064-12.00128 12.00128-8.00256 5.00224-18.00192 8.00256 6.00064 2.00192 9.99936 6.00064 3.99872 3.00032 6.99904 6.99904z m-345.00096 67.00032l64-184.00256q0.9984-3.00032 2.00192-3.99872 0.9984-2.00192 3.99872-3.00032 3.00032 0 8.00256-2.00192h28.00128q6.00064 2.00192 9.00096 2.00192 3.00032 0.9984 3.99872 3.00032 2.00192 2.00192 3.00032 5.00224l64.9984 184.00256q2.00192 5.00224 2.00192 9.00096 0.9984 3.99872-0.9984 6.00064-2.00192 0.9984-6.00064 2.00192h-25.99936q-5.00224 0-6.99904-0.9984t-3.00032-2.00192-2.00192-3.99872l-13.99808-41.00096H334.00832l-12.99968 38.99904q-0.9984 3.00032-2.00192 5.00224t-3.00032 3.00032q-2.00192 0-6.99904 0.9984h-22.99904q-3.99872-0.9984-6.00064-3.00032-0.9984-0.9984-0.9984-6.00064z m99.00032 258.00192q-25.00096 2.00192-48.9984-6.99904-48-16.9984-48-67.00032v-118.99904h389.00224q18.00192 0 31.0016-13.99808 13.99808-12.99968 13.99808-32v-224q0-19.00032-13.99808-32-12.99968-12.99968-31.0016-12.99968H284.00128V145.00864q2.00192-18.00192 10.99776-35.99872 19.99872-37.00224 56.00256-37.00224h298.99776q26.99776 3.00032 26.99776 42.99776v159.0016q0 34.00192 38.00064 34.00192h162.00192q35.00032-0.9984 35.00032 35.99872V860.0064q0.9984 19.00032-9.00096 38.99904-19.99872 37.00224-73.99936 37.00224h-448z m-128-241.00352q-3.00032 0-6.99904 0.9984h-22.99904q-3.99872-0.9984-6.99904-0.9984-2.00192-0.9984-3.00032-3.00032t-0.9984-3.99872l-19.99872-44.99968q-2.00192-8.00256-6.00064-15.0016-3.00032-6.00064-6.99904-9.99936t-9.00096-6.00064-12.00128-2.00192h-13.99808v77.99808q0 2.00192-0.9984 3.99872t-3.00032 2.00192l-6.00064 2.00192h-19.99872q-3.99872-0.9984-6.99904-2.00192-2.00192 0-3.00032-2.00192t-0.9984-3.99872V499.9936q0-6.99904 3.00032-9.99936 3.99872-3.00032 9.00096-3.00032h67.00032q6.99904 0.9984 9.99936 0.9984 12.00128 2.00192 22.99904 6.00064 9.99936 3.99872 16.9984 10.99776 6.00064 6.99904 9.99936 16 3.99872 9.99936 3.99872 22.99904 0 9.99936-3.00032 19.00032-2.00192 8.00256-6.99904 15.0016-6.00064 6.00064-12.99968 12.00128-8.00256 5.00224-16.9984 8.00256 5.00224 2.00192 9.00096 6.00064 3.99872 3.00032 6.99904 6.99904 3.99872 3.99872 6.99904 9.99936t6.00064 12.99968l16.9984 41.99936 5.00224 8.00256v9.00096l-3.99872 2.00192zM752 41.99936Q709.00224 0 674.00192 0h-335.0016Q281.00096 0 240 41.00096q-41.99936 41.99936-41.99936 99.99872V432.9984H83.00032q-19.00032 0-32.9984 13.99808-12.99968 12.99968-12.99968 32v224.9984q0 19.00032 12.99968 32 13.99808 13.99808 32.9984 13.99808h115.00032v133.00224q0 57.99936 47.0016 99.99872 45.99808 41.00096 105.00096 41.00096h496q57.99936 0 99.00032-41.00096 41.99936-41.99936 41.99936-99.99872V312.99584q0-28.99968-51.00032-88.00256z m-172.00128 476.99968h-31.0016v58.99776h22.00064q9.00096 0 16-2.00192 6.00064-3.00032 10.99776-6.00064 3.99872-3.99872 6.99904-9.99936 2.00192-5.00224 2.00192-12.00128 0-10.99776-5.00224-18.00192-3.99872-6.99904-15.0016-9.99936-2.00192 0-6.99904-0.9984z" p-id="9397"></path></svg>