<?xml version="1.0" standalone="no"?><!DOCTYPE svg PUBLIC "-//W3C//DTD SVG 1.1//EN" "http://www.w3.org/Graphics/SVG/1.1/DTD/svg11.dtd"><svg t="1622097574137" class="icon" viewBox="0 0 1024 1024" version="1.1" xmlns="http://www.w3.org/2000/svg" p-id="50017" xmlns:xlink="http://www.w3.org/1999/xlink" width="128" height="128"><defs><style type="text/css"></style></defs><path d="M128 64h768a32 32 0 0 1 32 32v832a32 32 0 0 1-32 32H128a32 32 0 0 1-32-32V96a32 32 0 0 1 32-32z m384 800a128 128 0 0 0 128-128c0-47.136-42.656-132.48-128-256-85.344 123.52-128 208.864-128 256a128 128 0 0 0 128 128zM864 131.84L160 131.52V384h704V131.84zM296 192h64v128h-64V192z m64 0v128h-64V192h64z m128 0h64v128h-64V192z m64 0v128h-64V192h64z m128 0h64v128h-64V192z m64 0v128h-64V192h64z" p-id="50018"></path></svg>