<?xml version="1.0" standalone="no"?><!DOCTYPE svg PUBLIC "-//W3C//DTD SVG 1.1//EN" "http://www.w3.org/Graphics/SVG/1.1/DTD/svg11.dtd"><svg t="1622097517213" class="icon" viewBox="0 0 1024 1024" version="1.1" xmlns="http://www.w3.org/2000/svg" p-id="46830" xmlns:xlink="http://www.w3.org/1999/xlink" width="128" height="128"><defs><style type="text/css"></style></defs><path d="M384 714.656C384 779.456 441.312 832 512 832s128-52.544 128-117.344c0-43.2-42.656-121.408-128-234.656-85.344 113.248-128 191.456-128 234.656z" p-id="46831"></path><path d="M864 64H160c-35.296 0-64 28.704-64 64v768c0 35.296 28.704 64 64 64h704c35.296 0 64-28.704 64-64V128c0-35.296-28.704-64-64-64zM256 128h512v224H256V128zM160 896V128h32v288h640V128h32l0.064 768H160z" p-id="46832"></path><path d="M328 192h64v96h-64zM488 192h64v96h-64zM648 192h64v96h-64z" p-id="46833"></path></svg>