<?xml version="1.0" standalone="no"?><!DOCTYPE svg PUBLIC "-//W3C//DTD SVG 1.1//EN" "http://www.w3.org/Graphics/SVG/1.1/DTD/svg11.dtd"><svg t="1622381455997" class="icon" viewBox="0 0 1024 1024" version="1.1" xmlns="http://www.w3.org/2000/svg" p-id="15810" xmlns:xlink="http://www.w3.org/1999/xlink" width="128" height="128"><defs><style type="text/css"></style></defs><path d="M187.591111 61.44a42.069333 42.069333 0 0 0-30.976 13.511111 48.355556 48.355556 0 0 0-13.255111 31.544889V917.617778a45.795556 45.795556 0 0 0 44.231111 45.056h648.817778a42.069333 42.069333 0 0 0 30.976-13.511111 44.885333 44.885333 0 0 0 13.283555-31.544889V316.757333L629.959111 61.44z" fill="#A48AFF" p-id="15811"></path><path d="M880.64 315.733333h-206.592a42.211556 42.211556 0 0 1-31.004444-13.454222 43.349333 43.349333 0 0 1-13.283556-31.288889V61.44z" fill="#CABBFF" p-id="15812"></path><path d="M297.984 733.240889a79.047111 79.047111 0 0 1-24.376889-10.467556 65.109333 65.109333 0 0 1-15.872-15.303111 59.221333 59.221333 0 0 1-9.130667-17.863111 70.769778 70.769778 0 0 1-2.844444-18.744889h44.401778a30.179556 30.179556 0 0 0 12.487111 22.072889 48.696889 48.696889 0 0 0 30.976 8.931556 47.104 47.104 0 0 0 28.984889-7.850667 24.803556 24.803556 0 0 0 10.353778-20.878222 20.48 20.48 0 0 0-8.049778-17.066667 64.597333 64.597333 0 0 0-25.287111-10.040889l-32.682667-7.452444a100.778667 100.778667 0 0 1-21.845333-7.139556 68.096 68.096 0 0 1-17.635556-11.690666 49.095111 49.095111 0 0 1-12.344889-17.777778 62.862222 62.862222 0 0 1-4.380444-24.007111 59.448889 59.448889 0 0 1 11.121778-35.754667 66.702222 66.702222 0 0 1 29.667555-22.755556 110.677333 110.677333 0 0 1 41.870222-7.480888 91.676444 91.676444 0 0 1 58.88 18.033777 58.282667 58.282667 0 0 1 22.755556 46.961778h-42.922667a29.610667 29.610667 0 0 0-10.951111-21.134222 41.614222 41.614222 0 0 0-27.904-8.533333 43.463111 43.463111 0 0 0-26.453333 7.338666 23.523556 23.523556 0 0 0-9.728 19.911111c0 12.629333 9.898667 21.020444 29.582222 25.031111l33.052444 7.395556a115.569778 115.569778 0 0 1 22.755556 7.168 77.710222 77.710222 0 0 1 18.403556 11.377778 45.994667 45.994667 0 0 1 13.027555 18.119111 65.422222 65.422222 0 0 1 4.608 25.400889 59.932444 59.932444 0 0 1-23.381333 49.891555 101.319111 101.319111 0 0 1-63.800889 18.318223h-1.678222a128.369778 128.369778 0 0 1-31.658667-4.010667z m407.836444 3.925333a108.913778 108.913778 0 0 1-41.927111-7.452444 73.073778 73.073778 0 0 1-29.297777-21.048889 92.103111 92.103111 0 0 1-16.725334-31.488 130.844444 130.844444 0 0 1-5.518222-39.822222v-26.794667a100.096 100.096 0 0 1 25.059556-71.68 90.368 90.368 0 0 1 69.148444-26.595556 106.723556 106.723556 0 0 1 37.717333 6.343112 73.528889 73.528889 0 0 1 27.306667 16.725333 76.487111 76.487111 0 0 1 16.270222 23.523555 73.016889 73.016889 0 0 1 6.200889 27.591112h-45.255111a38.712889 38.712889 0 0 0-13.653333-26.481778 44.231111 44.231111 0 0 0-29.212445-9.585778 42.666667 42.666667 0 0 0-34.417778 15.160889 69.091556 69.091556 0 0 0-12.8 45.312v26.538667a77.368889 77.368889 0 0 0 11.662223 45.056 40.874667 40.874667 0 0 0 36.039111 16.64 46.136889 46.136889 0 0 0 31.800889-10.780445 34.133333 34.133333 0 0 0 12.032-26.538667v-12.060444h-42.296889v-34.133333h86.556444v42.894222a82.488889 82.488889 0 0 1-2.844444 21.532444 73.329778 73.329778 0 0 1-9.500445 21.134223 76.999111 76.999111 0 0 1-16.725333 18.375111 78.165333 78.165333 0 0 1-25.315556 12.828444 115.456 115.456 0 0 1-32.881777 4.807111z m-216.746666-4.209778L417.28 516.551111h53.504l46.705778 165.518222h1.848889l45.994666-165.518222h51.740445l-71.68 216.376889z" fill="#FFFFFF" p-id="15813"></path></svg>