<?xml version="1.0" standalone="no"?><!DOCTYPE svg PUBLIC "-//W3C//DTD SVG 1.1//EN" "http://www.w3.org/Graphics/SVG/1.1/DTD/svg11.dtd"><svg t="1622381443434" class="icon" viewBox="0 0 1024 1024" version="1.1" xmlns="http://www.w3.org/2000/svg" p-id="14941" xmlns:xlink="http://www.w3.org/1999/xlink" width="128" height="128"><defs><style type="text/css"></style></defs><path d="M585.1392 88.86784v203.70432H835.072l-249.9328-203.70432z m292.5824 238.44864v38.4H512V73.14432H146.28352v877.71648h731.42784V327.31648h0.01024zM146.28352 0h445.66016l331.99616 270.62784a73.14944 73.14944 0 0 1 26.92096 56.68864v623.54432c0 40.39168-32.74752 73.1392-73.1392 73.1392H146.28352c-40.3968 0-73.14432-32.74752-73.14432-73.1392V73.14432C73.14432 32.74752 105.89184 0 146.28352 0z" p-id="14942"></path><path d="M296.5248 762.3424l4.89472 29.93664c-9.53856 2.00704-18.0736 3.01056-25.60512 3.01056-12.29824 0-21.8368-1.9456-28.61568-5.8368s-11.5456-9.00608-14.30528-15.34464c-2.7648-6.33344-4.14208-19.67104-4.14208-40.00256v-115.02592h-24.85248v-26.35776h24.85248v-49.5104l33.69984-20.33664v69.84704h34.0736v26.35776H262.4512v116.91008c0 9.66656 0.59392 15.87712 1.78688 18.6368 1.19296 2.7648 3.13344 4.96128 5.8368 6.58944 2.69824 1.63328 6.5536 2.45248 11.57632 2.45248 3.7632-0.01024 8.71936-0.45056 14.8736-1.32608zM329.65632 792.64768v-199.936h30.3104v28.05248c6.27712-9.78944 14.6176-17.65888 25.04192-23.62368 10.41408-5.95968 22.27712-8.93952 35.57888-8.93952 14.80704 0 26.95168 3.07712 36.4288 9.22624s16.15872 14.7456 20.04992 25.78944c15.81568-23.3472 36.39296-35.01568 61.75232-35.01568 19.82976 0 35.07712 5.48864 45.7472 16.47104 10.67008 10.98752 16.00512 27.89376 16.00512 50.73408v137.24672h-33.69984v-125.94688c0-13.55264-1.1008-23.31648-3.29728-29.27616s-6.18496-10.76224-11.9552-14.40256c-5.77536-3.64032-12.54912-5.45792-20.33152-5.45792-14.05952 0-25.728 4.67968-35.0208 14.02368-9.28768 9.35424-13.93152 24.32-13.93152 44.90752v116.15744h-33.88928v-129.89952c0-15.05792-2.75968-26.35264-8.28416-33.88928-5.52448-7.53152-14.56128-11.29472-27.1104-11.29472a49.26464 49.26464 0 0 0-26.44992 7.53152c-8.09472 5.02272-13.96736 12.3648-17.60256 22.03136-3.64032 9.66656-5.45792 23.59296-5.45792 41.79456v103.7312h-33.88416zM650.8288 869.2736v-276.56192h30.8736v25.97888c7.28064-10.1632 15.49824-17.792 24.66304-22.87616 9.15968-5.07904 20.26496-7.61856 33.32096-7.61856 17.06496 0 32.128 4.39296 45.184 13.17376 13.05088 8.79104 22.90176 21.18144 29.55264 37.18656 6.65088 16 9.97888 33.54112 9.97888 52.61312 0 20.45952-3.67616 38.88128-11.01312 55.25504-7.3472 16.37888-18.01216 28.928-32.00512 37.65248-13.99296 8.71936-28.70784 13.08672-44.14976 13.08672-11.29472 0-21.43232-2.38592-30.40256-7.15264-8.97536-4.77184-16.34816-10.79296-22.12352-18.0736v97.33632h-33.87904z m30.68416-175.45728c0 25.728 5.21216 44.73856 15.63136 57.04192 10.41408 12.30336 23.02464 18.45248 37.84192 18.45248 15.05792 0 27.9552-6.36928 38.68672-19.10784 10.73152-12.73344 16.09728-32.47616 16.09728-59.20256 0-25.48224-5.23776-44.55424-15.71328-57.23648-10.48576-12.67712-23.00416-19.01056-37.56032-19.01056-14.43328 0-27.20256 6.74304-38.30784 20.23424-11.12064 13.48608-16.67584 33.09568-16.67584 58.8288z" p-id="14943"></path></svg>