<?xml version="1.0" standalone="no"?><!DOCTYPE svg PUBLIC "-//W3C//DTD SVG 1.1//EN" "http://www.w3.org/Graphics/SVG/1.1/DTD/svg11.dtd"><svg t="1622381386227" class="icon" viewBox="0 0 1024 1024" version="1.1" xmlns="http://www.w3.org/2000/svg" p-id="11812" xmlns:xlink="http://www.w3.org/1999/xlink" width="128" height="128"><defs><style type="text/css"></style></defs><path d="M890.092308 988.553846H133.907692c-19.692308 0-39.384615-15.753846-39.384615-39.384615V70.892308c0-19.692308 15.753846-39.384615 39.384615-39.384616h582.892308c11.815385 0 19.692308 3.938462 27.569231 11.815385l169.353846 169.353846c7.876923 7.876923 11.815385 15.753846 11.815385 27.569231v708.923077c0 23.630769-15.753846 39.384615-35.446154 39.384615z" fill="#F39205" p-id="11813"></path><path d="M921.6 220.553846h-153.6c-19.692308 0-35.446154-15.753846-35.446154-35.446154V31.507692l189.046154 189.046154z" fill="#FFFFFF" opacity=".6" p-id="11814"></path><path d="M362.338462 409.6h299.323076v47.261538h-122.092307v319.015385h-55.138462v-319.015385H362.338462v-47.261538z" fill="#FFFFFF" p-id="11815"></path></svg>