<?xml version="1.0" standalone="no"?><!DOCTYPE svg PUBLIC "-//W3C//DTD SVG 1.1//EN" "http://www.w3.org/Graphics/SVG/1.1/DTD/svg11.dtd"><svg t="1622381243653" class="icon" viewBox="0 0 1024 1024" version="1.1" xmlns="http://www.w3.org/2000/svg" p-id="3280" xmlns:xlink="http://www.w3.org/1999/xlink" width="128" height="128"><defs><style type="text/css"></style></defs><path d="M649.728 1.024H138.752c-13.312 0-26.624 5.632-35.84 15.36-9.216 9.728-14.848 22.528-15.36 35.84v919.552c0 12.8 5.12 26.624 15.36 35.84 10.24 10.24 23.04 15.36 35.84 15.36h749.056c12.8 0 26.624-5.12 35.84-15.36 9.728-9.216 15.36-22.528 15.36-35.84v-680.96L649.728 1.024z m24.576 738.304h-66.048l-82.432-313.344h-2.56l-82.432 313.344h-66.56L257.536 333.312H327.68l78.848 316.416h2.048L491.52 333.312h65.024l82.944 316.416h2.048l78.848-316.416h70.144l-116.224 406.016z" fill="#2C97FF" p-id="3281"></path><path d="M939.008 290.304h-238.592c-13.312 0-26.624-5.632-35.84-15.36-9.728-9.216-15.36-22.528-15.36-35.84V1.024l289.792 289.28z" fill="#99D3FF" p-id="3282"></path></svg>