<?xml version="1.0" standalone="no"?><!DOCTYPE svg PUBLIC "-//W3C//DTD SVG 1.1//EN" "http://www.w3.org/Graphics/SVG/1.1/DTD/svg11.dtd"><svg t="1622097577291" class="icon" viewBox="0 0 1024 1024" version="1.1" xmlns="http://www.w3.org/2000/svg" p-id="50161" xmlns:xlink="http://www.w3.org/1999/xlink" width="128" height="128"><defs><style type="text/css"></style></defs><path d="M256 224h512v736H256V224z m256 512a160 160 0 1 0 0-320 160 160 0 0 0 0 320z m0-64a96 96 0 1 1 0-192 96 96 0 0 1 0 192z" p-id="50162"></path><path d="M192 992v-96h640v96z" p-id="50163"></path><path d="M480 32h64a32 32 0 0 1 32 32v64h-128V64a32 32 0 0 1 32-32z" p-id="50164"></path><path d="M256.736 256C266.816 148.608 377.28 64 512 64s245.184 84.608 255.264 192H256.736z" p-id="50165"></path><path d="M224 272a32 32 0 1 1 0-64h573.216a32 32 0 1 1 0 64H224zM256 668.736H224a32 32 0 0 1-32-32V480a32 32 0 0 1 32-32h32a32 32 0 0 1 32 32v156.736a32 32 0 0 1-32 32zM800 668.736h-32a32 32 0 0 1-32-32V480a32 32 0 0 1 32-32h32a32 32 0 0 1 32 32v156.736a32 32 0 0 1-32 32z" p-id="50166"></path></svg>