<?xml version="1.0" standalone="no"?><!DOCTYPE svg PUBLIC "-//W3C//DTD SVG 1.1//EN" "http://www.w3.org/Graphics/SVG/1.1/DTD/svg11.dtd"><svg t="1622381321752" class="icon" viewBox="0 0 1024 1024" version="1.1" xmlns="http://www.w3.org/2000/svg" p-id="8513" xmlns:xlink="http://www.w3.org/1999/xlink" width="128" height="128"><defs><style type="text/css"></style></defs><path d="M740.6848 0l279.4496 281.216v653.5424a84.992 84.992 0 0 1-84.9664 84.9408H212.8384a84.9664 84.9664 0 0 1-84.9664-84.9408v-106.2656H42.9312a42.496 42.496 0 0 1-42.496-42.4704V424.832a42.496 42.496 0 0 1 42.496-42.4448h84.9408V84.992A84.992 84.992 0 0 1 212.864 0h527.8208z m-26.5728 63.744H212.864a21.248 21.248 0 0 0-21.2736 21.2224v297.4208h637.312c23.4752 0 42.496 19.0208 42.496 42.496v361.1392a42.496 42.496 0 0 1-42.4448 42.4704H191.6416v106.24a21.248 21.248 0 0 0 21.1968 21.2224H935.168a21.248 21.248 0 0 0 21.1968-21.1968V307.5328l-10.0352-10.112h-125.952a97.6896 97.6896 0 0 1-97.6896-97.664V72.3456l-8.576-8.576z m-341.76 414.0032H171.3664v37.5808h143.872l-155.136 196.096v34.56h221.2608v-37.5552H217.5744l154.7776-195.7376v-34.944z m88.6528 0h-43.9552V745.984h43.9552V477.7472z m163.7888 0h-111.1808V745.984h43.9296v-102.912h66.5088c65.3568 0 98.048-27.8016 98.048-83.0464 0-54.8352-32.6912-82.2784-97.28-82.2784z m-3.3792 37.5808c19.1744 0 33.4336 3.3792 42.4704 10.496 9.0112 6.784 13.8752 18.048 13.8752 34.2016 0 16.1536-4.5056 27.8016-13.5168 34.944-9.0112 6.7584-23.296 10.5216-42.8288 10.5216H557.568V515.328h63.872z" fill="#FF4640" p-id="8514"></path></svg>